<svg width="250" height="250" xmlns="http://www.w3.org/2000/svg">
 <!-- Created with Method Draw - http://github.com/duopixel/Method-Draw/ -->

 <g>
  <title>background</title>
  <rect fill="none" id="canvas_background" height="252" width="252" y="-1" x="-1"/>
  <g display="none" id="canvasGrid">
   <rect fill="url(#gridpattern)" stroke-width="0" y="0" x="0" height="100%" width="100%" id="svg_2"/>
  </g>
 </g>
 <g>
  <title>Layer 1</title>
  <ellipse ry="113.13822" rx="113.13822" id="svg_1" cy="124.68621" cx="124.80363" stroke-width="1.5" fill="#7AD6CA"/>
  <path id="svg_27" d="m152.173996,234.542999c-35.435997,-32.438995 -67.810097,-54.884277 -77.615067,-65.852249c-9.804993,-10.967972 -17.765209,-59.036057 1.129303,-83.558273c18.894516,-24.522217 64.079422,-35.262936 87.99054,-17.185478c23.911118,18.077454 61.03624,54.549004 73.892242,65.810005c0.065002,21.528 -13.383011,49.619003 -28.375992,66.320999c-14.735001,18.631012 -33.019012,27.802994 -56.828003,34.465012l-0.193008,0l0,0l0,0l0,0l-0.000015,-0.000015zl-12.668991,-100.341995" stroke-opacity="null" stroke-width="1.5" stroke="null" fill="#ffffff"/>
  <g id="svg_186">
   <g transform="matrix(0.693653, 0, 0, 0.693653, -757.058, -756.949)" id="svg_164">
    <g id="svg_170"/>
    <g id="svg_169"/>
    <g id="svg_168"/>
    <g id="svg_167"/>
    <g id="svg_165">
     <g id="svg_166"/>
    </g>
   </g>
   <g transform="matrix(0.693653, 0, 0, 0.693653, -757.058, -756.949)" id="svg_92">
    <g id="svg_163"/>
    <g id="svg_162"/>
    <g id="svg_161"/>
    <g id="svg_160"/>
    <g id="svg_159"/>
    <g id="svg_158"/>
    <g id="svg_157"/>
    <g id="svg_156"/>
    <g id="svg_155"/>
    <g id="svg_154"/>
    <g id="svg_153"/>
    <g id="svg_152"/>
    <g id="svg_151"/>
    <g id="svg_150"/>
    <g id="svg_149"/>
    <g id="svg_148"/>
    <g id="svg_147"/>
    <g id="svg_146"/>
    <g id="svg_145"/>
    <g id="svg_144"/>
    <g id="svg_143"/>
    <g id="svg_142"/>
    <g id="svg_141"/>
    <g id="svg_140"/>
    <g id="svg_139"/>
    <g id="svg_138"/>
    <g id="svg_137"/>
    <g id="svg_136"/>
    <g id="svg_135"/>
    <g id="svg_134"/>
    <g id="svg_133"/>
    <g id="svg_132"/>
    <g id="svg_131"/>
    <g id="svg_130"/>
    <g id="svg_129"/>
    <g id="svg_128"/>
    <g id="svg_127"/>
    <g id="svg_126"/>
    <g id="svg_125"/>
    <g id="svg_124"/>
    <g id="svg_123"/>
    <g id="svg_122"/>
    <g id="svg_121"/>
    <g id="svg_120"/>
    <g id="svg_119"/>
    <g id="svg_118"/>
    <g id="svg_117"/>
    <g id="svg_116"/>
    <g id="svg_115"/>
    <g id="svg_114"/>
    <g id="svg_113"/>
    <g id="svg_112"/>
    <g id="svg_111"/>
    <g id="svg_110"/>
    <g id="svg_109"/>
    <g id="svg_93">
     <g id="svg_172">
      <title>Sheet.40</title>
      <g id="svg_108">
       <title>Sheet.41</title>
       <path id="svg_173" d="m1325.090332,1338.365356c-15.599976,12 -33.900024,17.699951 -52.099976,17.699951c-26,0 -51,-11.5 -68.199951,-33.899902c-28.600098,-37.5 -21.400146,-91.100098 16.099854,-119.800049c15.600098,-12 33.900146,-17.700073 52.100098,-17.700073c26,0 51,11.5 68.199951,33.900024c28.699951,37.5 21.400024,91.199951 -16.099976,119.800049zm26.099976,-128.100098c-19.299927,-25.5 -49,-38.5 -78.099976,-38.5c-20.799927,0 -42.199951,6.800049 -59.900024,20.300049c-43.199951,33.300049 -51.599976,94.800049 -18.199951,138c19.300049,25.5 48.400024,38.5 78.099976,38.5c20.800049,0 42.200073,-6.800049 59.900024,-20.300049c43.199951,-32.799927 51.5,-94.799927 18.199951,-138z" fill="#0078D7"/>
      </g>
      <g id="svg_94">
       <title>Sheet.42</title>
       <g id="svg_98">
        <title>Sheet.43</title>
        <g id="svg_107">
         <title>Sheet.44</title>
         <path id="svg_174" d="m1228.428345,1288.598511c-5.699951,-5.699951 -10.400024,-10.899902 -14.099976,-16.099976c-8.300049,16.700073 -10.900024,33.900024 -12,47.900024c1,1 1,2.099976 1.599976,3.099976c4.199951,5.200073 9.400024,10.400024 14.099976,14.099976c0,-11.5 1,-30.299927 10.400024,-49z" fill="#0078D7"/>
        </g>
        <g id="svg_106">
         <title>Sheet.45</title>
         <path id="svg_175" d="m1258.7323,1222.465332c-7.800049,5.200073 -15.599976,12.000122 -24,20.800049c-4.199951,4.700073 -8.300049,9.400024 -11.5,14.099976c3.600098,5.699951 7.800049,11.5 13.5,17.199951c4.199951,-5.699951 9.400024,-12 15.600098,-17.699951c7.799927,-7.300049 15.099854,-13.5 22.399902,-18.199951c-5.099976,-5.199951 -10.799927,-11 -16,-16.200073z" fill="#0078D7"/>
        </g>
        <g id="svg_105">
         <title>Sheet.46</title>
         <path id="svg_176" d="m1340.384888,1217.432007c-3.600098,-4.699951 -7.300049,-8.799927 -12,-12.5c-13,-2.099976 -34.5,-1.699951 -57.900024,10.800049c5.200073,5.699951 10.900024,11.5 16.099976,16.099976c31.199951,-17.099976 53.800049,-14.400024 53.800049,-14.400024z" fill="#0078D7"/>
        </g>
        <g id="svg_104">
         <title>Sheet.47</title>
         <path id="svg_177" d="m1214.691284,1271.784546c2.600098,-4.699951 5.200073,-9.399902 8.300049,-14.599976c-13.5,-21.400024 -13,-39.099976 -11.5,-47.400024c-3.099976,3.600098 -6.800049,7.300049 -9.400024,10.900024c-2.5,12.099976 -2.5,29.800049 12.599976,51.099976z" fill="#0078D7"/>
        </g>
        <g id="svg_103">
         <title>Sheet.48</title>
         <path id="svg_178" d="m1253.164551,1289.712769c-6.299927,-5.199951 -11.5,-9.899902 -16.099976,-14.599976c-3.099976,4.700073 -5.699951,8.900024 -8.300049,13.5c4.200073,4.200073 9.400024,8.900024 15.100098,13c34.899902,27.599976 69.799927,30.200073 89.599976,30.200073c1,0 7.299927,-8.300049 10.900024,-13.5c-9,2.099976 -46.5,6.800049 -91.200073,-28.600098z" fill="#0078D7"/>
        </g>
        <g id="svg_102">
         <title>Sheet.49</title>
         <path id="svg_179" d="m1214.572876,1271.894043c3.599976,5.200073 8.300049,10.900024 14.099976,16.099976c2.099976,-4.699951 4.700073,-8.899902 8.300049,-13.5c-5.700073,-5.699951 -9.900024,-11.5 -13.5,-17.199951c-3.599976,5.199951 -6.300049,9.900024 -8.900024,14.599976z" fill="#0078D7"/>
        </g>
        <g id="svg_101">
         <title>Sheet.50</title>
         <path id="svg_180" d="m1274.703369,1238.734009c32.299927,29.700073 69.799927,54.700073 79.699951,61.5c1,-2.599976 1.599976,-4.699951 2.099976,-7.299927c-10.399902,-7.800049 -37.5,-28.599976 -70.299927,-61.5c-3.200073,2.099976 -7.400024,3.5 -11.5,7.299927z" fill="#0078D7"/>
        </g>
        <g id="svg_100">
         <title>Sheet.51</title>
         <path id="svg_181" d="m1271.01355,1215.505859c-7.799927,-8.300049 -16.099976,-17.599976 -24.5,-27c-3.599976,1 -7.799927,2.599976 -11.5,4.699951c5.700073,9.900024 14.600098,20.100098 23.400024,29.5c4.800049,-2.599976 8.5,-5.099976 12.599976,-7.199951z" fill="#0078D7"/>
        </g>
        <g id="svg_99">
         <title>Sheet.52</title>
         <path id="svg_182" d="m1270.996826,1215.478638c-4.199951,2.099976 -9,4.099976 -12.599976,7.199951c5.199951,5.199951 10.599976,10.800049 16.300049,16c4.199951,-2.599976 7.699951,-4.699951 11.899902,-6.800049c-5.199951,-5.099976 -9.899902,-10.599976 -15.599976,-16.399902z" fill="#0078D7"/>
        </g>
       </g>
       <g id="svg_97">
        <title>Sheet.53</title>
        <path id="svg_183" d="m1312.713623,1259.652832c-7.799927,6.300049 -9.400024,17.700073 -3.599976,25.5c6.300049,8.300049 17.699951,9.400024 26,3.599976c7.800049,-6.299927 9.399902,-17.699951 3.599976,-26c-6.200073,-7.800049 -17.599976,-9.300049 -26,-3.099976z" fill="#0078D7"/>
       </g>
       <g id="svg_96">
        <title>Sheet.54</title>
        <path id="svg_184" d="m1274.718262,1305.810059c-7.299927,5.700073 -8.900024,16.700073 -3.099976,24c5.699951,7.299927 16.699951,8.900024 24,3.099976c7.300049,-5.699951 8.900024,-16.099976 3.099976,-24c-5.699951,-7.799927 -16.199951,-8.799927 -24,-3.099976z" fill="#0078D7"/>
       </g>
       <g id="svg_95">
        <title>Sheet.55</title>
        <path id="svg_185" d="m1210.972046,1251.596802c-11.5,8.900024 -13.5,25 -4.699951,36.5c8.900024,11.5 25,13.5 36.5,4.700073s13.5,-25 4.699951,-36.5c-8.899902,-11.5 -25.599976,-13.599976 -36.5,-4.700073z" fill="#0078D7"/>
       </g>
      </g>
     </g>
    </g>
   </g>
   <g transform="matrix(0.693653, 0, 0, 0.693653, -757.058, -756.949)" id="svg_91"/>
   <g transform="matrix(0.693653, 0, 0, 0.693653, -757.058, -756.949)" id="svg_89">
    <g id="svg_90"/>
   </g>
  </g>
  <path d="m94.349373,54.280918c0,0 -0.131073,0.368542 0,0.684933c0.185341,0.447449 0.606239,0.694088 0.684906,1.02739c0.175964,0.7453 0.842064,1.264881 1.027405,1.71233c0.13105,0.316399 0.499588,0.922409 0.684929,1.369862c0.131058,0.316399 0.185097,1.045719 0.342468,1.71233c0.175941,0.745289 0.342468,1.027397 0.342468,1.369858c0,0.342472 0,1.027401 0.342461,1.027401l0,0.684929l0,0.342461l0,0" id="svg_187" fill-opacity="null" stroke-opacity="null" stroke-width="1.5" stroke="null" fill="none"/>
  <path id="svg_188" d="m72.089119,143.664368" opacity="0.5" fill-opacity="null" stroke-opacity="null" stroke-width="1.5" stroke="null" fill="#ffffff"/>
  <path id="svg_190" d="m70.376793,41.609699" opacity="0.5" fill-opacity="null" stroke-opacity="null" stroke-width="1.5" stroke="null" fill="#ffffff"/>
 </g>
 <g>
  <title>Layer 1</title>
  <g id="svg_3">
   <path id="svg_24" d="m271.982697,315.33136" opacity="0.5" stroke-opacity="null" stroke-width="1.5" stroke="null" fill="#5fbf00"/>
   <path id="svg_25" d="m283.01532,319.008911" opacity="0.5" stroke-opacity="null" stroke-width="1.5" stroke="null" fill="#5fbf00"/>
   <path fill="#b72d52" stroke="null" stroke-width="1.5" stroke-opacity="null" d="m28.801422,95.987312l22.329281,30.11618l-22.329281,30.116295l0,-60.232475z" id="svg_11"/>
  </g>
 </g>
</svg>