<svg width="250" height="250" xmlns="http://www.w3.org/2000/svg">
 <!-- Created with Method Draw - http://github.com/duopixel/Method-Draw/ -->

 <g>
  <title>background</title>
  <rect x="-1" y="-1" width="123.951215" height="123.951215" id="canvas_background" fill="none"/>
  <g id="canvasGrid" display="none">
   <rect id="svg_2" width="100%" height="100%" x="0" y="0" stroke-width="0" fill="url(#gridpattern)"/>
  </g>
 </g>
 <g>
  <title>Layer 1</title>
  <ellipse fill="#7AD6CA" stroke-width="1.5" cx="124.80363" cy="124.68621" id="svg_1" rx="113.13822" ry="113.13822"/>
  <path fill="#ffffff" stroke="null" stroke-width="1.5" stroke-opacity="null" d="m152.173904,234.542999c-35.436127,-32.438705 -76.714302,-68.582993 -76.587601,-68.591995c0.126595,-0.009003 -9.888496,-80.95401 10.375908,-101.708984c20.264404,-20.754974 70.928795,2.750778 74.976784,2.677582c12.856003,11.261597 63.776108,55.576561 76.632111,66.837555c0.065384,21.527634 -13.383041,49.61911 -28.375885,66.320389c-14.735443,18.631485 -33.019272,27.803329 -56.828262,34.465454zl-12.668961,-100.342056" id="svg_27"/>
  <g id="Azure_SQL_database">
   <g id="svg_4">
    <path id="svg_5" d="m115.799484,125.4375c0.322205,0.644485 0.966698,0.966721 1.611145,0.966721c0.644455,0.322205 1.288902,0.322205 1.933357,0.322205c0.644501,0 1.288933,0 1.611145,-0.322205c0.644508,-0.322235 0.966705,-0.644485 1.611153,-1.28894c0.322227,-0.644455 0.644493,-1.288925 0.966682,-1.933365c0.322258,-0.644478 0.322258,-1.611137 0.322258,-2.90007c0,-0.966705 0,-1.611145 -0.322258,-2.57785c-0.322189,-0.966667 -0.322189,-1.611153 -0.966682,-2.2556c-0.322212,-0.64444 -0.966644,-0.96669 -1.28891,-1.611145c-0.644455,-0.322212 -1.288887,-0.644447 -1.933388,-0.644447c-0.966652,0 -1.611153,0.322235 -2.2556,0.644447c-0.64444,0.322227 -0.966698,0.966705 -1.611145,1.288925c-0.322205,0.644447 -0.644455,1.288925 -0.966698,1.933372c-0.322205,0.644447 -0.322205,1.611153 -0.322205,2.577843c0,1.288902 0,2.2556 0.322205,2.900047c0.644493,1.611153 0.966698,2.255623 1.28894,2.900063z" fill="#0078D7"/>
    <path id="svg_6" d="m134.4888,150.571426c0.966644,0 2.2556,0 3.222305,0.32222c5.15564,-10.311325 15.46698,-17.078186 27.389496,-17.722626l0,-60.256897c0,-9.666893 -20.944916,-19.011543 -46.40107,-19.011543c-25.778358,0 -46.401016,8.700188 -46.401016,18.367058l0,87.001953c0,8.700211 17.078163,17.078156 39.311981,18.367111c-0.32225,-1.288956 -0.32225,-2.577866 -0.32225,-3.866745c0,-12.566971 10.311394,-23.200531 23.200554,-23.200531zm16.75592,-17.722626l-16.11145,0l0,-24.811691l7.41127,0l0,19.011536l8.70018,0l0,5.800156zm-32.545189,-72.179413c18.367058,0 33.189659,4.511223 33.189659,9.989113c0,5.477921 -14.822601,9.989098 -33.189659,9.989098c-18.367065,0 -33.189636,-4.511177 -33.189636,-9.989098c0,-5.47789 14.822571,-9.989113 33.189636,-9.989113zm-13.855873,66.379257c0,0.64447 -0.322197,1.28894 -0.644455,1.93338c-0.322197,0.644485 -0.644447,1.28894 -1.288895,1.61116c-0.64444,0.64447 -1.288956,0.966675 -1.933403,1.28891c-0.64444,0.32222 -1.611145,0.64447 -2.90004,0.966705c-0.96669,0.32222 -2.255592,0.32222 -3.866745,0.32222c-0.644501,0 -1.611145,0 -2.255638,0c-0.644455,0 -1.288902,0 -1.93335,-0.32222c-0.644455,0 -1.288948,-0.322235 -1.611145,-0.322235c-0.644447,0 -0.966713,-0.32225 -1.288956,-0.64447l0,-6.766815c0.322243,0.32222 0.966713,0.644455 1.611153,0.966705c0.644493,0.322235 0.96669,0.64444 1.611153,0.96666c0.644493,0.322235 1.28894,0.322235 1.933388,0.64447c0.644447,0.322235 1.288895,0.322235 1.933395,0.322235c0.644455,0 0.96666,0 1.288902,-0.322235c0.32225,0 0.64444,-0.322235 0.64444,-0.322235c0.322258,0 0.322258,-0.322235 0.322258,-0.644455c0,-0.322205 0,-0.322205 0,-0.64444c0,-0.32225 0,-0.644485 -0.322258,-0.966705c-0.322189,-0.32222 -0.322189,-0.644455 -0.64444,-0.644455c-0.322243,-0.322235 -0.644447,-0.322235 -1.288902,-0.64447c-0.644501,-0.322205 -0.96669,-0.322205 -1.611145,-0.64444c-0.966698,-0.322227 -1.933395,-0.966698 -2.900101,-1.611137c-0.644447,-0.644485 -1.288887,-0.966705 -1.933334,-1.61116c-0.644508,-0.644478 -0.966705,-1.288918 -0.966705,-1.933372c-0.322243,-0.644478 -0.322243,-1.611145 -0.322243,-2.255623c0,-1.288918 0.322243,-2.255585 0.64444,-3.222298c0.644508,-0.966667 1.288956,-1.933372 1.933395,-2.577812c0.966705,-0.644478 1.933403,-1.288925 3.222298,-1.611145c1.288895,-0.322258 2.57785,-0.644485 4.188995,-0.644485c0.966698,0 1.611145,0 2.255592,0c0.644447,0 1.288902,0 1.933395,0.322227c0.644455,0 0.966644,0.322258 1.61116,0.322258c0.322197,0 0.966637,0.32222 1.288887,0.32222l0,6.444588c-0.32225,-0.32222 -0.644447,-0.32222 -1.288887,-0.64447c-0.32225,-0.322227 -0.966705,-0.322227 -1.61116,-0.644455c-0.644493,-0.322212 -0.96669,-0.322212 -1.611137,-0.322212c-0.644508,0 -1.288956,0 -1.933395,0c-0.966713,0 -1.611153,0 -1.933395,0.322212c-0.644463,0.322227 -0.644463,0.644455 -0.644463,1.288925c0,0.32222 0,0.644447 0.322258,0.644447c0,0.32222 0.322205,0.32222 0.644447,0.644478c0.32225,0.322227 0.64444,0.322227 0.966698,0.644447c0.322197,0.32222 0.966698,0.32222 1.611145,0.644447c0.966705,0.32225 1.93335,0.966705 2.90004,1.28891c0.966713,0.644485 1.61116,0.966713 2.2556,1.611168c0.644501,0.644478 0.966698,1.288918 1.611153,1.933365c0.32225,0.644478 0.644493,1.611153 0.644493,2.900063c-0.644493,0.322235 -0.644493,0.966721 -0.644493,1.611145zm2.57785,-1.28891c-0.644447,-1.611145 -0.966713,-3.222298 -0.966713,-5.155663c0,-1.933372 0.322266,-3.866745 0.966713,-5.477898c0.64444,-1.611137 1.611137,-2.90007 2.577843,-4.188988c0.96669,-1.288925 2.577843,-1.93338 3.866737,-2.57782c1.611153,-0.644485 3.222298,-0.966705 5.155693,-0.966705c1.93335,0 3.544502,0.32222 4.833443,0.966705c1.611153,0.64444 2.900055,1.611145 3.866745,2.57782c0.96669,0.96669 1.933411,2.57785 2.577835,3.866768c0.644455,1.611145 0.966721,3.22229 0.966721,5.47789c0,1.288933 0,2.90007 -0.644501,3.866745c-0.32222,1.28891 -0.966644,2.25563 -1.61116,3.22229c-0.64444,0.966705 -1.288895,1.933395 -2.255585,2.57785c-0.966705,0.644455 -1.61116,1.288925 -2.900055,1.933365l8.377945,7.08905l-9.666885,0l-5.477898,-5.800125c-1.611145,0 -3.222298,-0.644455 -4.511192,-0.966705c-1.288948,-0.644455 -2.577843,-1.61113 -3.544548,-2.577805c0,-0.966721 -0.966698,-2.25563 -1.611137,-3.866776z" fill="#0078D7"/>
    <path id="svg_7" d="m205.701462,182.472137c0,-6.122391 -4.83342,-11.278046 -10.955765,-11.92247c0.322205,-1.933411 0.64447,-3.54454 0.64447,-5.477921c0,-15.789261 -12.889191,-28.678436 -28.678421,-28.678436c-11.922531,0 -22.556061,7.089035 -26.745056,18.044846c-1.611145,-0.32222 -3.22229,-0.644455 -5.155701,-0.644455c-11.278023,0 -20.300446,9.022415 -20.300446,20.300461c0,10.955826 8.700233,19.97821 19.978256,20.300461l60.579102,0l2.255646,0l0,-0.32225c4.83345,-1.28891 8.377914,-6.12233 8.377914,-11.600235zm-10.955765,8.700195l-59.934708,0c-9.344612,0 -17.078156,-7.73349 -17.078156,-17.078171c0,-9.34465 7.733543,-17.078156 17.078156,-17.078156c1.933411,0 3.866776,0.322235 5.477905,0.966675l1.611176,0.644455l0.64447,-1.61113c3.544495,-10.311356 13.21138,-17.400391 24.167206,-17.400391c14.178085,0 25.456116,11.60025 25.456116,25.456131c0,2.2556 -0.32225,4.511215 -0.966705,6.766815l-0.64444,2.577835l2.2556,-0.322235c0.322235,0 0.64444,0 0.966675,0c4.83345,0 8.700211,3.866745 8.700211,8.700165c0,4.188995 -3.222305,8.055756 -7.733505,8.378006z" fill="#0078D7"/>
   </g>
  </g>
  <path fill="#5fbf00" stroke="null" stroke-width="1.5" stroke-opacity="null" opacity="0.5" d="m225.965851,227.71579" id="svg_24"/>
  <path fill="#5fbf00" stroke="null" stroke-width="1.5" stroke-opacity="null" opacity="0.5" d="m232.102097,229.761215" id="svg_25"/>
 </g>
</svg>