<svg width="250" height="250" xmlns="http://www.w3.org/2000/svg">
 <!-- Created with Method Draw - http://github.com/duopixel/Method-Draw/ -->

 <g>
  <title>background</title>
  <rect x="-1" y="-1" width="113.111111" height="113.111111" id="canvas_background" fill="none"/>
  <g id="canvasGrid" display="none">
   <rect id="svg_2" width="100%" height="100%" x="0" y="0" stroke-width="0" fill="url(#gridpattern)"/>
  </g>
 </g>
 <g>
  <title>Layer 1</title>
  <ellipse fill="#7AD6CA" stroke-width="1.5" cx="124.80363" cy="124.68621" id="svg_1" rx="113.13822" ry="113.13822"/>
  <path fill="#ffffff" stroke="null" stroke-width="1.5" stroke-opacity="null" d="m152.173904,234.542999c-18.610504,5.251968 -34.77858,3.029816 -34.974731,3.021118c-0.196152,-0.008698 -85.2278,-85.613937 -85.1021,-85.518341c0.031422,0.023895 42.628704,-54.785545 48.780819,-50.257774c6.152115,4.527771 6.942177,5.241417 12.331192,11.766739c5.389015,6.525322 -1.715485,-6.026566 -1.849083,-6.287628c-0.133598,-0.261063 5.859489,6.370338 21.151962,22.95977c15.292473,16.589432 -5.360207,-28.901672 2.813568,-52.857567c8.173775,-23.955894 64.667816,-5.461075 66.691803,-5.497673c12.856003,11.261597 43.091629,45.633369 55.947632,56.894424c0.159454,30.610367 -13.535873,54.851227 -28.769745,71.311478c-14.735443,18.631485 -33.019272,27.803329 -56.828262,34.465454l-0.193054,0zl-12.668961,-100.342056" id="svg_27"/>
  <g id="svg_3">
   <polygon stroke-width="3" stroke="#0078d7" fill="#ffffff" id="svg_8" points="80.64823293685913,101.9072961807251 75.23044729232788,96.48954105377197 72.90854024887085,94.16761112213135 72.90854024887085,94.16761112213135 33.436131954193115,94.16761112213135 33.436131954193115,150.66735935211182 82.97013235092163,150.66735935211182 82.97013235092163,104.22922611236572 82.97013235092163,104.22922611236572 " class="st0"/>
   <polygon stroke-width="3" stroke="#0078d7" fill="#ffffff" id="svg_9" points="72.90854024887085,96.48954105377197 35.75804662704468,96.48954105377197 35.75804662704468,148.3454294204712 80.64823293685913,148.3454294204712 80.64823293685913,104.22922611236572 77.93935537338257,104.22922611236572 72.90854024887085,104.22922611236572 " class="st1"/>
  </g>
  <g id="Azure_SQL_database">
   <g id="svg_4">
    <path id="svg_5" d="m145.830734,125.609039c0.277847,0.555756 0.833588,0.833618 1.389328,0.833618c0.555725,0.277847 1.111435,0.277847 1.667191,0.277847c0.555756,0 1.111481,0 1.389328,-0.277847c0.555771,-0.277863 0.833603,-0.555756 1.389343,-1.111488c0.277863,-0.555717 0.555756,-1.111473 0.833572,-1.667183c0.277908,-0.555748 0.277908,-1.389328 0.277908,-2.500809c0,-0.833611 0,-1.389328 -0.277908,-2.222939c-0.277817,-0.83358 -0.277817,-1.389336 -0.833572,-1.945061c-0.277847,-0.555717 -0.833572,-0.833603 -1.111465,-1.389336c-0.555725,-0.277847 -1.11145,-0.555717 -1.667206,-0.555717c-0.833588,0 -1.389343,0.27787 -1.945084,0.555717c-0.55571,0.27787 -0.833588,0.833618 -1.389328,1.111473c-0.277847,0.555733 -0.55571,1.111481 -0.833588,1.667198c-0.277847,0.555725 -0.277847,1.389336 -0.277847,2.222939c0,1.11145 0,1.945061 0.277847,2.500786c0.55574,1.389336 0.833588,1.945076 1.111481,2.500801z" fill="#0078D7"/>
    <path id="svg_6" d="m161.946991,147.282639c0.833572,0 1.945068,0 2.778671,0.277863c4.445847,-8.891708 13.337585,-14.726944 23.618652,-15.282669l0,-51.961021c0,-8.336014 -18.061325,-16.394138 -40.012817,-16.394138c-22.229294,0 -40.012741,7.502392 -40.012741,15.838375l0,75.023972c0,7.502411 14.726944,14.726929 33.899719,15.838425c-0.277893,-1.111496 -0.277893,-2.222961 -0.277893,-3.334381c0,-10.836823 8.891769,-20.006424 20.006409,-20.006424zm14.449066,-15.282654l-13.893311,0l0,-21.395744l6.390915,0l0,16.394119l7.502396,0l0,5.001625zm-28.06456,-62.242126c15.838379,0 28.620285,3.890144 28.620285,8.613869c0,4.723747 -12.781906,8.613853 -28.620285,8.613853c-15.838364,0 -28.620239,-3.890106 -28.620239,-8.613853c0,-4.723724 12.781876,-8.613869 28.620239,-8.613869zm-11.948242,57.240501c0,0.55574 -0.277847,1.111488 -0.55574,1.667198c-0.277832,0.555756 -0.555725,1.111496 -1.111435,1.389343c-0.555725,0.555756 -1.111496,0.833588 -1.667236,1.111481c-0.55571,0.277847 -1.389328,0.555725 -2.500763,0.833603c-0.833618,0.277847 -1.945053,0.277847 -3.334404,0.277847c-0.555763,0 -1.38932,0 -1.945076,0c-0.555725,0 -1.111458,0 -1.667191,-0.277847c-0.55571,0 -1.111496,-0.277878 -1.389328,-0.277878c-0.555733,0 -0.833611,-0.277878 -1.111496,-0.555725l0,-5.835213c0.277885,0.27787 0.833618,0.555733 1.389328,0.833626c0.555786,0.277863 0.833611,0.55571 1.389343,0.833565c0.555771,0.277878 1.111496,0.277878 1.667229,0.55574c0.555717,0.277878 1.111427,0.277878 1.667191,0.277878c0.555748,0 0.833595,0 1.111458,-0.277878c0.277893,0 0.55571,-0.277863 0.55571,-0.277863c0.277908,0 0.277908,-0.277878 0.277908,-0.555733c0,-0.277847 0,-0.277847 0,-0.55571c0,-0.277893 0,-0.555756 -0.277908,-0.833626c-0.277817,-0.277855 -0.277817,-0.555717 -0.55571,-0.555717c-0.277863,-0.277878 -0.55571,-0.277878 -1.111458,-0.555756c-0.555763,-0.277832 -0.833572,-0.277832 -1.38932,-0.55571c-0.833603,-0.277863 -1.667213,-0.833603 -2.500832,-1.389328c-0.555725,-0.555756 -1.111443,-0.833611 -1.667175,-1.389343c-0.555763,-0.555748 -0.833611,-1.111465 -0.833611,-1.667191c-0.277863,-0.555748 -0.277863,-1.389328 -0.277863,-1.945076c0,-1.111473 0.277863,-1.945053 0.55571,-2.778671c0.555763,-0.83358 1.111496,-1.667198 1.667213,-2.222916c0.833611,-0.555748 1.667229,-1.111473 2.778687,-1.389328c1.111427,-0.277893 2.222939,-0.555763 3.612267,-0.555763c0.833603,0 1.389328,0 1.945038,0c0.555725,0 1.111465,0 1.667221,0.27787c0.55574,0 0.833572,0.277893 1.389343,0.277893c0.277832,0 0.833572,0.277855 1.111435,0.277855l0,5.557327c-0.277863,-0.277855 -0.55571,-0.277855 -1.111435,-0.55574c-0.277878,-0.277863 -0.833603,-0.277863 -1.389343,-0.555733c-0.555756,-0.277847 -0.833603,-0.277847 -1.389328,-0.277847c-0.555771,0 -1.111511,0 -1.667221,0c-0.833618,0 -1.389328,0 -1.667191,0.277847c-0.555748,0.27787 -0.555748,0.555733 -0.555748,1.111473c0,0.277863 0,0.555733 0.277901,0.555733c0,0.277855 0.277847,0.277855 0.55571,0.555748c0.277893,0.277863 0.55571,0.277863 0.833618,0.555717c0.277832,0.277863 0.833603,0.277863 1.389328,0.555725c0.833603,0.277885 1.667175,0.833611 2.500763,1.111458c0.833633,0.555756 1.389343,0.833618 1.945084,1.389351c0.555756,0.555748 0.833588,1.111465 1.389328,1.667191c0.277878,0.555748 0.555756,1.389336 0.555756,2.500801c-0.555756,0.277863 -0.555756,0.833618 -0.555756,1.38932zm2.222931,-1.111458c-0.55571,-1.389328 -0.833603,-2.778664 -0.833603,-4.445854c0,-1.667198 0.277893,-3.334389 0.833603,-4.723732c0.555725,-1.38932 1.389328,-2.500801 2.222946,-3.612267c0.833603,-1.111473 2.222946,-1.667206 3.334381,-2.222916c1.389328,-0.555763 2.778656,-0.833618 4.445892,-0.833618c1.667175,0 3.056519,0.277855 4.167999,0.833618c1.389328,0.55571 2.500778,1.389328 3.334381,2.222916c0.833618,0.833603 1.667221,2.222946 2.222946,3.334412c0.555725,1.389336 0.833603,2.778664 0.833603,4.723717c0,1.111481 0,2.500809 -0.555756,3.334396c-0.277847,1.111465 -0.833572,1.945084 -1.389343,2.778664c-0.555725,0.833611 -1.11145,1.667213 -1.945053,2.222939c-0.833603,0.555725 -1.389343,1.111481 -2.500778,1.667206l7.224503,6.113052l-8.335983,0l-4.723755,-5.001602c-1.389328,0 -2.778656,-0.555725 -3.890091,-0.833603c-1.111496,-0.55574 -2.222946,-1.389328 -3.056564,-2.222916c0,-0.833618 -0.833603,-1.945076 -1.389328,-3.334412z" fill="#0078D7"/>
    <path id="svg_7" d="m223.355453,174.791428c0,-5.27948 -4.167969,-9.725327 -9.447418,-10.281036c0.277847,-1.667236 0.55574,-3.056549 0.55574,-4.723755c0,-13.615479 -11.11467,-24.730133 -24.730133,-24.730133c-10.281082,0 -19.450653,6.113052 -23.062912,15.560516c-1.389343,-0.277863 -2.778671,-0.555725 -4.445908,-0.555725c-9.725327,0 -17.505569,7.780243 -17.505569,17.505585c0,9.44751 7.502426,17.227722 17.227737,17.505615l52.238892,0l1.945084,0l0,-0.277893c4.168015,-1.11145 7.224487,-5.279434 7.224487,-10.003174zm-9.447418,7.502396l-51.683212,0c-8.05809,0 -14.726913,-6.668793 -14.726913,-14.726944c0,-8.058105 6.668823,-14.726913 14.726913,-14.726913c1.667236,0 3.334427,0.277878 4.72374,0.833588l1.389359,0.55574l0.55574,-1.389328c3.056503,-8.891724 11.392502,-15.004791 20.839981,-15.004791c12.226135,0 21.951462,10.003189 21.951462,21.951462c0,1.945053 -0.277878,3.890137 -0.833618,5.83519l-0.555725,2.222946l1.945068,-0.277893c0.277878,0 0.555725,0 0.833588,0c4.167999,0 7.502411,3.334412 7.502411,7.502396c0,3.612259 -2.778687,6.946671 -6.668793,7.224548z" fill="#0078D7"/>
   </g>
  </g>
  <path fill="#5fbf00" stroke="null" stroke-width="1.5" stroke-opacity="null" opacity="0.5" d="m225.965851,227.71579" id="svg_24"/>
  <path fill="#5fbf00" stroke="null" stroke-width="1.5" stroke-opacity="null" opacity="0.5" d="m232.102097,229.761215" id="svg_25"/>
  <path id="svg_10" d="m74.099472,96.742676l6.667366,6.83844l-7.660393,-0.303467" stroke-width="3" fill="#0078d7"/>
  <path transform="rotate(90, 96.9213, 122.469)" id="svg_11" d="m80.169441,128.67836l16.750359,-12.41935l16.75042,12.41935l-33.500778,0z" stroke-opacity="null" stroke-width="1.5" stroke="null" fill="#b72d52"/>
 </g>
</svg>